<svg width="250" height="250" viewBox="0 0 250 250" fill="none" xmlns="http://www.w3.org/2000/svg">
<style>
  .mark { fill: #009473; }
  @media (prefers-color-scheme: dark) {
    .mark { fill: #28DCB1; }
  }
</style>
<path class="mark" d="M29.7751 56.1386C29.0418 56.2969 28.6168 56.5385 28.0668 57.0968C27.5002 57.6718 27.3585 57.9301 27.1585 58.7134C27.0086 59.2717 27.0002 60.0716 27.0002 74.9458C27.0002 88.2866 27.0169 90.6281 27.1169 90.8198C27.1835 90.9448 27.8085 91.6031 28.5168 92.2864C29.2168 92.9613 30.4917 94.2029 31.3416 95.0362C32.1916 95.8612 33.5082 97.1444 34.2664 97.8777C35.0164 98.611 36.6663 100.203 37.9246 101.419C39.1828 102.636 41.316 104.702 42.6659 105.994C44.0159 107.294 45.7408 108.96 46.499 109.702C49.5072 112.627 50.8821 113.96 52.957 115.96C59.0566 121.843 59.8399 122.618 59.8149 122.793C59.7899 122.96 59.7649 122.96 44.7491 123.001L29.7084 123.043L29.2251 123.235C28.6668 123.459 27.7668 124.251 27.4585 124.784C26.9752 125.626 27.0002 124.784 27.0002 143.225C27.0002 159.157 27.0086 160.132 27.1502 160.341C27.2252 160.457 27.8918 161.132 28.6251 161.832C29.3584 162.532 30.4083 163.549 30.9583 164.082C31.5083 164.615 33.1998 166.249 34.7081 167.707C38.3995 171.273 39.3661 172.207 41.0827 173.873C41.8827 174.648 42.8826 175.606 43.2909 175.998C44.0409 176.715 46.6907 179.298 47.7406 180.331C48.0406 180.631 48.9989 181.548 49.8655 182.373C50.7405 183.198 51.8987 184.322 52.457 184.872C54.6985 187.089 58.1733 190.405 58.7733 190.905C60.2899 192.147 62.5814 193.439 64.248 193.98C65.7395 194.472 67.3561 194.822 68.5644 194.914C70.1643 195.03 147.743 195.03 148.493 194.905C149.476 194.747 150.293 194.147 150.884 193.147L151.284 192.455L151.326 176.54C151.351 167.782 151.376 160.616 151.393 160.599C151.484 160.499 151.809 160.757 152.959 161.857C155.009 163.807 163.709 172.207 164.367 172.873C164.692 173.198 165.717 174.19 166.658 175.081C167.6 175.973 168.608 176.948 168.908 177.248C169.592 177.931 171.508 179.781 173.816 181.998C174.8 182.939 176.033 184.131 176.566 184.647C182.474 190.405 182.816 190.705 184.874 192.214C185.791 192.88 188.757 194.114 190.407 194.514C192.29 194.964 191.482 194.939 206.073 194.972C219.872 195.005 220.422 194.997 221.014 194.697C221.972 194.214 222.797 193.197 223.03 192.23C223.138 191.772 223.155 189.647 223.155 176.056C223.155 164.857 223.13 160.349 223.063 160.224C223.013 160.124 222.588 159.674 222.13 159.224C221.663 158.774 220.272 157.424 219.03 156.224C217.797 155.016 215.564 152.858 214.072 151.416C212.589 149.975 210.989 148.416 210.531 147.958C210.064 147.5 208.923 146.391 207.981 145.5C206.189 143.783 205.056 142.692 203.581 141.25C203.081 140.767 201.931 139.667 201.023 138.792C200.115 137.925 199.048 136.892 198.657 136.5C198.265 136.109 197.54 135.392 197.032 134.909C195.698 133.642 193.524 131.534 190.865 128.951C189.582 127.709 187.991 126.168 187.324 125.534C185.432 123.726 185.141 123.426 185.174 123.268C185.199 123.135 186.249 123.126 202.781 123.085C219.972 123.043 220.372 123.035 220.805 122.876C221.414 122.66 222.238 121.96 222.597 121.351C223.197 120.385 223.155 121.46 223.155 105.436C223.155 93.2113 223.138 90.9615 223.038 90.7698C222.972 90.6448 222.288 89.9448 221.522 89.2116C220.747 88.4783 219.797 87.5617 219.405 87.17C219.014 86.7784 218.072 85.8618 217.314 85.1368C216.564 84.4035 215.272 83.1453 214.439 82.3453C213.031 80.9704 210.431 78.4539 207.114 75.2457C206.331 74.4958 205.248 73.4458 204.698 72.9209C204.148 72.3959 203.473 71.7376 203.198 71.4626C202.923 71.1876 201.84 70.1377 200.79 69.1294C199.74 68.1212 198.382 66.8046 197.782 66.2129C197.173 65.613 196.007 64.488 195.19 63.7131C194.373 62.9298 193.365 61.9549 192.949 61.5466C189.632 58.2551 186.124 56.5885 181.474 56.0886C180.941 56.0386 173.825 56.0052 160.426 56.0052C138.535 56.0052 139.777 55.9802 138.885 56.4302C138.319 56.7218 137.544 57.5301 137.227 58.1551L136.952 58.7134L136.91 74.5458C136.869 89.1866 136.86 90.3782 136.735 90.3782C136.619 90.3782 134.719 88.5949 132.211 86.1284C131.936 85.8534 131.311 85.2535 130.827 84.7952C130.344 84.3369 129.219 83.2452 128.327 82.3786C125.461 79.6038 124.628 78.7872 119.745 74.0875C117.111 71.546 113.887 68.4378 112.578 67.1796C111.278 65.913 109.629 64.3214 108.912 63.6298C108.204 62.9465 107.32 62.0882 106.954 61.7215C106.029 60.7966 104.629 59.6133 103.804 59.0717C103.146 58.6217 101.721 57.8718 100.554 57.3468C99.3709 56.8218 97.6876 56.3969 95.7044 56.1302C94.3795 55.9552 30.5833 55.9552 29.7751 56.1386ZM137.852 91.7281C138.71 92.5447 143.21 96.8861 144.868 98.5027C146.31 99.9026 147.901 101.444 149.701 103.177C150.251 103.702 151.184 104.602 151.776 105.177C152.368 105.744 153.151 106.502 153.526 106.86C153.901 107.219 154.651 107.952 155.201 108.485C155.751 109.019 157.159 110.377 158.326 111.502C161.85 114.893 163.509 116.493 164.084 117.077C164.384 117.377 164.925 117.91 165.292 118.251C165.659 118.593 166.833 119.718 167.9 120.743C169.383 122.168 169.825 122.651 169.808 122.785L169.783 122.96L163.617 123.01C159.751 123.035 157.326 123.085 157.117 123.143C156.934 123.193 156.601 123.276 156.367 123.335C155.417 123.576 154.159 124.343 153.393 125.151C152.601 125.984 152.043 126.884 151.676 127.943C151.418 128.693 151.376 128.909 151.351 129.792C151.334 130.342 151.309 137.309 151.301 145.267C151.284 156.991 151.268 159.757 151.176 159.849C151.084 159.941 150.968 159.849 150.509 159.374C150.201 159.049 149.351 158.216 148.618 157.507C147.885 156.799 146.818 155.766 146.243 155.208C145.31 154.308 141.61 150.733 135.452 144.792C130.202 139.734 128.169 137.759 127.702 137.292C127.427 137.017 126.736 136.342 126.161 135.792C125.586 135.242 124.294 134.001 123.286 133.042C122.278 132.076 121.136 130.976 120.745 130.584C120.353 130.192 119.286 129.159 118.37 128.293C117.461 127.418 116.428 126.426 116.078 126.084C115.737 125.743 114.995 125.009 114.428 124.468C113.67 123.734 113.412 123.434 113.428 123.301L113.453 123.126L122.161 123.076C127.777 123.051 130.986 123.001 131.202 122.943C132.119 122.71 132.352 122.618 133.194 122.193C133.969 121.793 134.185 121.635 134.785 121.01C135.169 120.618 135.619 120.093 135.785 119.843C136.194 119.251 136.719 118.151 136.844 117.627C136.919 117.318 136.944 113.902 136.969 104.294C136.985 97.1861 137.01 91.3281 137.035 91.2698C137.102 91.0781 137.26 91.1698 137.852 91.7281Z"/>
</svg>
