<svg width="1194" height="242" viewBox="0 0 1194 242" fill="none" xmlns="http://www.w3.org/2000/svg">
<path d="M77.622 70.5003C77.0881 70.6156 76.7787 70.7915 76.3783 71.198C75.9657 71.6166 75.8626 71.8046 75.717 72.3749C75.6078 72.7814 75.6017 73.3638 75.6017 84.193C75.6017 93.9059 75.6139 95.6107 75.6867 95.7502C75.7352 95.8412 76.1902 96.3205 76.7059 96.818C77.2155 97.3094 78.1437 98.2133 78.7625 98.82C79.3813 99.4206 80.3399 100.355 80.892 100.889C81.438 101.423 82.6392 102.581 83.5553 103.467C84.4714 104.353 86.0245 105.857 87.0073 106.798C87.9901 107.744 89.2459 108.958 89.798 109.498C91.9881 111.627 92.9891 112.598 94.4997 114.054C98.9406 118.337 99.5109 118.901 99.4927 119.028C99.4745 119.15 99.4563 119.15 88.524 119.18L77.5734 119.21L77.2216 119.35C76.8151 119.514 76.1599 120.09 75.9354 120.478C75.5835 121.091 75.6017 120.478 75.6017 133.904C75.6017 145.504 75.6078 146.214 75.7109 146.365C75.7655 146.45 76.2509 146.942 76.7847 147.451C77.3186 147.961 78.083 148.701 78.4834 149.089C78.8839 149.478 80.1154 150.667 81.2135 151.728C83.9011 154.325 84.6048 155.005 85.8546 156.218C86.437 156.782 87.165 157.48 87.4623 157.765C88.0083 158.287 89.9375 160.167 90.7019 160.92C90.9203 161.138 91.618 161.805 92.249 162.406C92.886 163.007 93.7293 163.826 94.1357 164.226C95.7677 165.84 98.2976 168.254 98.7344 168.618C99.8385 169.522 101.507 170.463 102.72 170.857C103.806 171.215 104.983 171.47 105.863 171.536C107.028 171.621 163.509 171.621 164.055 171.53C164.771 171.415 165.366 170.978 165.797 170.25L166.088 169.747L166.118 158.159C166.136 151.783 166.155 146.566 166.167 146.553C166.233 146.481 166.47 146.669 167.307 147.47C168.8 148.889 175.133 155.005 175.613 155.49C175.849 155.726 176.595 156.448 177.281 157.098C177.967 157.747 178.701 158.457 178.919 158.675C179.417 159.172 180.812 160.519 182.492 162.133C183.208 162.819 184.106 163.686 184.494 164.062C188.796 168.254 189.044 168.473 190.543 169.571C191.21 170.056 193.37 170.954 194.571 171.245C195.942 171.573 195.354 171.555 205.977 171.579C216.023 171.603 216.424 171.597 216.855 171.379C217.552 171.027 218.153 170.287 218.323 169.583C218.402 169.249 218.414 167.702 218.414 157.807C218.414 149.654 218.396 146.371 218.347 146.28C218.311 146.208 218.001 145.88 217.668 145.552C217.328 145.225 216.315 144.242 215.411 143.368C214.513 142.489 212.887 140.917 211.801 139.868C210.721 138.818 209.556 137.684 209.223 137.35C208.883 137.016 208.052 136.21 207.366 135.56C206.062 134.311 205.237 133.516 204.163 132.466C203.799 132.115 202.962 131.314 202.3 130.677C201.639 130.046 200.863 129.293 200.577 129.008C200.292 128.723 199.764 128.201 199.394 127.85C198.424 126.927 196.84 125.393 194.905 123.512C193.971 122.608 192.812 121.486 192.327 121.024C190.949 119.708 190.737 119.49 190.761 119.374C190.78 119.277 191.544 119.271 203.581 119.241C216.096 119.21 216.387 119.204 216.703 119.089C217.146 118.931 217.746 118.422 218.007 117.979C218.444 117.275 218.414 118.058 218.414 106.391C218.414 97.4914 218.402 95.8534 218.329 95.7138C218.28 95.6228 217.783 95.1132 217.225 94.5793C216.66 94.0455 215.969 93.3781 215.684 93.093C215.399 92.8078 214.713 92.1405 214.161 91.6127C213.615 91.0788 212.675 90.1627 212.068 89.5803C211.043 88.5793 209.15 86.7471 206.735 84.4114C206.165 83.8654 205.376 83.101 204.976 82.7188C204.575 82.3366 204.084 81.8573 203.884 81.6571C203.684 81.4569 202.895 80.6925 202.131 79.9584C201.366 79.2243 200.377 78.2658 199.94 77.835C199.498 77.3982 198.648 76.5792 198.054 76.015C197.459 75.4447 196.725 74.7349 196.422 74.4376C194.007 72.0413 191.453 70.8279 188.068 70.4639C187.679 70.4275 182.498 70.4032 172.743 70.4032C156.806 70.4032 157.71 70.385 157.06 70.7126C156.648 70.925 156.084 71.5134 155.853 71.9684L155.653 72.3749L155.623 83.9018C155.592 94.5611 155.586 95.4287 155.495 95.4287C155.41 95.4287 154.027 94.1304 152.201 92.3346C152.001 92.1344 151.546 91.6976 151.194 91.364C150.842 91.0303 150.023 90.2355 149.374 89.6046C147.287 87.5843 146.68 86.9898 143.125 83.5681C141.208 81.7178 138.86 79.4549 137.908 78.5388C136.961 77.6166 135.76 76.4579 135.238 75.9543C134.723 75.4568 134.079 74.832 133.812 74.565C133.139 73.8916 132.12 73.0301 131.519 72.6358C131.04 72.3082 130.003 71.7622 129.153 71.38C128.292 70.9978 127.066 70.6884 125.622 70.4942C124.658 70.3668 78.2104 70.3668 77.622 70.5003ZM156.308 96.4115C156.933 97.0061 160.209 100.167 161.416 101.344C162.466 102.363 163.625 103.485 164.935 104.747C165.336 105.129 166.015 105.785 166.446 106.203C166.876 106.616 167.447 107.168 167.72 107.429C167.993 107.69 168.539 108.224 168.939 108.612C169.34 109 170.365 109.989 171.214 110.808C173.78 113.277 174.988 114.442 175.406 114.867C175.625 115.085 176.019 115.473 176.286 115.722C176.553 115.971 177.408 116.79 178.185 117.536C179.265 118.573 179.586 118.925 179.574 119.022L179.556 119.15L175.067 119.186C172.252 119.204 170.486 119.241 170.335 119.283C170.201 119.32 169.958 119.38 169.789 119.423C169.097 119.599 168.181 120.157 167.623 120.745C167.046 121.352 166.64 122.007 166.373 122.778C166.185 123.324 166.155 123.481 166.136 124.125C166.124 124.525 166.106 129.597 166.1 135.391C166.088 143.927 166.076 145.941 166.009 146.007C165.942 146.074 165.857 146.007 165.524 145.662C165.299 145.425 164.68 144.818 164.146 144.303C163.613 143.787 162.836 143.035 162.417 142.628C161.738 141.973 159.044 139.37 154.561 135.045C150.739 131.362 149.259 129.924 148.919 129.585C148.719 129.384 148.215 128.893 147.796 128.493C147.378 128.092 146.437 127.188 145.703 126.491C144.969 125.787 144.138 124.986 143.853 124.701C143.568 124.416 142.791 123.664 142.124 123.033C141.463 122.396 140.71 121.674 140.456 121.425C140.207 121.176 139.667 120.642 139.254 120.248C138.702 119.714 138.514 119.496 138.526 119.399L138.545 119.271L144.884 119.235C148.973 119.217 151.309 119.18 151.467 119.138C152.134 118.968 152.304 118.901 152.917 118.592C153.481 118.3 153.639 118.185 154.076 117.73C154.355 117.445 154.682 117.063 154.804 116.881C155.101 116.45 155.483 115.649 155.574 115.267C155.629 115.043 155.647 112.555 155.665 105.56C155.677 100.385 155.695 96.1203 155.714 96.0778C155.762 95.9383 155.877 96.005 156.308 96.4115Z" fill="#009473"/>
<path d="M260.013 166.707L304.297 75.2124H340.469L384.754 166.707H349.513L344.06 154.605H299.244L293.924 166.707H260.013ZM309.218 131.865H334.086L327.703 116.438C327.437 115.729 327.082 114.776 326.639 113.579C326.196 112.382 325.708 111.03 325.176 109.523C324.644 108.016 324.134 106.509 323.647 105.001C323.159 103.494 322.694 102.12 322.25 100.879H321.319C320.787 102.386 320.167 104.115 319.458 106.065C318.748 108.016 318.061 109.922 317.396 111.784C316.731 113.645 316.133 115.197 315.601 116.438L309.218 131.865Z" fill="#0A1F1A"/>
<path d="M395.659 166.707V75.2124H488.218V97.9531H428.507V113.379H480.77V136.12H428.507V166.707H395.659Z" fill="#0A1F1A"/>
<path d="M502.979 166.707V75.2124H595.537V97.9531H535.826V113.379H588.09V136.12H535.826V166.707H502.979Z" fill="#0A1F1A"/>
<path d="M610.299 166.707V75.2124H689.559C696.385 75.2124 702.082 76.6309 706.647 79.4679C711.213 82.305 714.649 86.0286 716.954 90.6388C719.259 95.249 720.412 100.214 720.412 105.533C720.412 111.651 719.06 117.081 716.355 121.824C713.651 126.567 709.684 130.357 704.453 133.194L722.539 166.707H685.436L671.606 138.115H643.146V166.707H610.299ZM643.146 115.374H677.989C680.471 115.374 682.555 114.599 684.239 113.047C685.924 111.496 686.766 109.346 686.766 106.597C686.766 104.735 686.367 103.162 685.569 101.876C684.771 100.591 683.729 99.6154 682.444 98.9505C681.158 98.2855 679.673 97.9531 677.989 97.9531H643.146V115.374Z" fill="#0A1F1A"/>
<path d="M726.928 166.707L771.212 75.2124H807.385L851.669 166.707H816.428L810.975 154.605H766.159L760.839 166.707H726.928ZM776.133 131.865H801.001L794.618 116.438C794.352 115.729 793.997 114.776 793.554 113.579C793.111 112.382 792.623 111.03 792.091 109.523C791.559 108.016 791.049 106.509 790.562 105.001C790.074 103.494 789.609 102.12 789.165 100.879H788.234C787.703 102.386 787.082 104.115 786.373 106.065C785.663 108.016 784.976 109.922 784.311 111.784C783.646 113.645 783.048 115.197 782.516 116.438L776.133 131.865Z" fill="#0A1F1A"/>
<path d="M862.574 166.707V75.2124H914.173L925.477 108.725C926.186 110.587 926.895 112.737 927.605 115.175C928.314 117.613 929.001 120.051 929.666 122.489C930.331 124.927 930.885 127.033 931.328 128.806H932.259C932.702 127.121 933.257 125.127 933.921 122.822C934.586 120.516 935.296 118.1 936.049 115.574C936.803 113.047 937.534 110.764 938.243 108.725L949.547 75.2124H999.55V166.707H966.703V126.811C966.703 124.595 966.725 122.157 966.769 119.497C966.813 116.837 966.88 114.222 966.969 111.651C967.057 109.08 967.102 106.863 967.102 105.001H966.038C965.417 107.04 964.686 109.412 963.843 112.116C963.001 114.82 962.159 117.48 961.317 120.095C960.474 122.711 959.699 124.949 958.989 126.811L944.627 166.707H915.503L901.14 126.811C900.165 123.974 899.212 121.159 898.281 118.366C897.35 115.574 896.53 113.003 895.821 110.653C895.112 108.304 894.535 106.42 894.092 105.001H893.028C893.117 106.42 893.183 108.304 893.228 110.653C893.272 113.003 893.316 115.574 893.361 118.366C893.405 121.159 893.427 123.974 893.427 126.811V166.707H862.574Z" fill="#0A1F1A"/>
<path d="M1019.23 166.707V75.2124H1116.98V97.9531H1052.21V109.789H1108.07V131.333H1052.21V143.966H1118.04V166.707H1019.23Z" fill="#0A1F1A"/>
</svg>
