<svg width="856" height="540" viewBox="0 0 856 540" fill="none" xmlns="http://www.w3.org/2000/svg">
<path d="M256.98 74.2995C255.664 74.5831 254.901 75.016 253.914 76.0161C252.898 77.0461 252.643 77.5088 252.285 78.912C252.015 79.9121 252 81.3451 252 107.99C252 131.888 252.03 136.083 252.21 136.426C252.329 136.65 253.451 137.829 254.722 139.054C255.978 140.263 258.266 142.487 259.791 143.979C261.316 145.457 263.679 147.756 265.04 149.07C266.385 150.383 269.346 153.234 271.604 155.414C273.862 157.593 277.69 161.295 280.112 163.609C282.535 165.937 285.63 168.923 286.991 170.251C292.389 175.491 294.856 177.879 298.58 181.462C309.525 192 310.931 193.388 310.886 193.702C310.841 194 310.796 194 283.851 194.075L256.86 194.15L255.993 194.493C254.991 194.896 253.376 196.314 252.823 197.269C251.956 198.777 252 197.269 252 230.303C252 258.844 252.015 260.59 252.27 260.964C252.404 261.173 253.6 262.382 254.916 263.636C256.232 264.889 258.116 266.711 259.103 267.666C260.09 268.621 263.126 271.547 265.832 274.159C272.456 280.548 274.191 282.22 277.271 285.205C278.707 286.594 280.501 288.31 281.234 289.012C282.58 290.296 287.335 294.923 289.219 296.774C289.757 297.311 291.477 298.953 293.032 300.431C294.602 301.909 296.681 303.924 297.682 304.909C301.705 308.88 307.94 314.821 309.017 315.716C311.738 317.941 315.851 320.254 318.841 321.225C321.518 322.105 324.419 322.732 326.587 322.896C329.458 323.105 468.672 323.105 470.018 322.882C471.783 322.598 473.248 321.523 474.31 319.732L475.027 318.493L475.102 289.982C475.147 274.294 475.192 261.456 475.222 261.426C475.386 261.247 475.97 261.71 478.033 263.68C481.712 267.173 497.323 282.22 498.504 283.414C499.087 283.996 500.926 285.773 502.616 287.37C504.306 288.967 506.115 290.713 506.654 291.251C507.88 292.475 511.319 295.789 515.461 299.759C517.225 301.446 519.439 303.581 520.396 304.506C530.997 314.821 531.61 315.358 535.304 318.06C536.949 319.254 542.272 321.463 545.233 322.18C548.612 322.986 547.162 322.941 573.345 323.001C598.107 323.061 599.094 323.046 600.156 322.508C601.876 321.643 603.356 319.821 603.775 318.09C603.969 317.269 603.999 313.462 603.999 289.116C603.999 269.054 603.954 260.979 603.834 260.755C603.745 260.576 602.982 259.769 602.16 258.963C601.322 258.157 598.825 255.739 596.597 253.59C594.384 251.425 590.377 247.559 587.7 244.977C585.038 242.394 582.167 239.603 581.345 238.782C580.507 237.961 578.459 235.976 576.769 234.378C573.554 231.303 571.521 229.348 568.874 226.766C567.977 225.9 565.913 223.929 564.283 222.362C562.653 220.81 560.739 218.959 560.036 218.257C559.334 217.555 558.033 216.272 557.121 215.406C554.728 213.137 550.825 209.36 546.055 204.733C543.752 202.509 540.896 199.747 539.7 198.613C536.306 195.374 535.782 194.836 535.842 194.553C535.887 194.314 537.771 194.299 567.438 194.224C598.287 194.15 599.005 194.135 599.782 193.851C600.874 193.463 602.354 192.209 602.997 191.119C604.074 189.388 603.999 191.314 603.999 162.609C603.999 140.71 603.969 136.68 603.79 136.337C603.67 136.113 602.444 134.859 601.068 133.545C599.677 132.232 597.973 130.59 597.27 129.888C596.567 129.187 594.877 127.545 593.517 126.246C592.171 124.932 589.853 122.678 588.358 121.245C585.831 118.782 581.165 114.274 575.214 108.527C573.808 107.184 571.864 105.303 570.878 104.363C569.891 103.422 568.679 102.243 568.186 101.751C567.693 101.258 565.749 99.3771 563.865 97.5709C561.98 95.7647 559.543 93.4062 558.466 92.3464C557.375 91.2717 555.281 89.2565 553.816 87.8683C552.351 86.4651 550.541 84.7186 549.794 83.9872C543.842 78.091 537.547 75.1055 529.203 74.2099C528.246 74.1203 515.476 74.0606 491.431 74.0606C452.149 74.0606 454.377 74.0159 452.777 74.8219C451.76 75.3444 450.37 76.7923 449.801 77.9118L449.308 78.912L449.233 107.274C449.158 133.501 449.143 135.635 448.919 135.635C448.71 135.635 445.301 132.441 440.8 128.022C440.306 127.53 439.185 126.455 438.317 125.634C437.45 124.813 435.431 122.858 433.831 121.305C428.688 116.334 427.192 114.871 418.43 106.453C413.704 101.9 407.918 96.332 405.57 94.078C403.237 91.809 400.276 88.9579 398.99 87.719C397.719 86.495 396.134 84.9575 395.476 84.3007C393.817 82.6438 391.304 80.5241 389.824 79.5538C388.643 78.7478 386.086 77.4043 383.992 76.4639C381.869 75.5235 378.848 74.7622 375.29 74.2845C372.912 73.9711 258.43 73.9711 256.98 74.2995ZM450.923 138.053C452.463 139.516 460.538 147.293 463.514 150.189C466.1 152.697 468.956 155.458 472.186 158.563C473.173 159.504 474.848 161.116 475.91 162.146C476.971 163.161 478.377 164.519 479.05 165.161C479.723 165.803 481.069 167.117 482.056 168.072C483.042 169.027 485.57 171.46 487.663 173.476C493.988 179.551 496.964 182.417 497.996 183.462C498.534 183.999 499.506 184.955 500.164 185.567C500.822 186.179 502.93 188.194 504.844 190.03C507.506 192.582 508.298 193.448 508.268 193.687L508.224 194L497.158 194.09C490.22 194.135 485.869 194.224 485.495 194.329C485.166 194.418 484.568 194.568 484.149 194.672C482.444 195.105 480.186 196.478 478.811 197.926C477.39 199.419 476.388 201.031 475.73 202.927C475.267 204.27 475.192 204.658 475.147 206.241C475.117 207.226 475.072 219.705 475.057 233.96C475.027 254.963 474.998 259.919 474.833 260.083C474.669 260.247 474.459 260.083 473.637 259.232C473.084 258.65 471.558 257.157 470.242 255.888C468.927 254.62 467.013 252.769 465.981 251.769C464.306 250.156 457.667 243.753 446.616 233.11C437.196 224.049 433.547 220.511 432.71 219.675C432.216 219.183 430.975 217.973 429.944 216.988C428.912 216.003 426.594 213.779 424.785 212.062C422.975 210.331 420.927 208.36 420.224 207.659C419.521 206.957 417.607 205.106 415.962 203.554C414.332 201.986 412.478 200.21 411.85 199.598C411.237 198.986 409.906 197.672 408.889 196.702C407.529 195.389 407.065 194.851 407.095 194.612L407.14 194.299L422.766 194.209C432.844 194.165 438.601 194.075 438.99 193.971C440.635 193.553 441.054 193.388 442.564 192.627C443.955 191.911 444.344 191.627 445.42 190.507C446.108 189.806 446.915 188.865 447.215 188.418C447.947 187.358 448.889 185.387 449.114 184.447C449.248 183.895 449.293 177.775 449.338 160.564C449.368 147.831 449.413 137.337 449.458 137.232C449.577 136.889 449.861 137.053 450.923 138.053Z" fill="#EC5011"/>
<g clip-path="url(#clip0_51_366)">
<path d="M76.0742 465.251L112.387 390.226H142.049L178.362 465.251H149.464L144.993 455.328H108.244L103.882 465.251H76.0742ZM116.422 436.681H136.814L131.58 424.031C131.362 423.449 131.071 422.668 130.708 421.686C130.344 420.705 129.944 419.596 129.508 418.36C129.072 417.125 128.654 415.889 128.254 414.653C127.854 413.417 127.473 412.29 127.109 411.272H126.346C125.91 412.508 125.401 413.926 124.819 415.525C124.237 417.125 123.674 418.688 123.129 420.214C122.584 421.741 122.093 423.013 121.657 424.031L116.422 436.681Z" fill="#0A1F1A"/>
<path d="M187.304 465.251V390.226H263.202V408.873H214.239V421.523H257.095V440.17H214.239V465.251H187.304Z" fill="#0A1F1A"/>
<path d="M275.307 465.251V390.226H351.205V408.873H302.242V421.523H345.098V440.17H302.242V465.251H275.307Z" fill="#0A1F1A"/>
<path d="M275.307 465.251V390.226H351.205V408.873H302.242V421.523H345.098V440.17H302.242V465.251H275.307Z" fill="#0A1F1A"/>
<path d="M363.309 465.251V390.226H428.302C433.9 390.226 438.57 391.389 442.314 393.715C446.059 396.042 448.876 399.095 450.766 402.876C452.656 406.656 453.601 410.727 453.601 415.089C453.601 420.105 452.492 424.558 450.275 428.447C448.058 432.337 444.804 435.445 440.515 437.771L455.346 465.251H424.921L413.58 441.806H390.244V465.251H363.309ZM390.244 423.159H418.814C420.85 423.159 422.558 422.522 423.94 421.25C425.321 419.978 426.012 418.215 426.012 415.961C426.012 414.435 425.685 413.144 425.03 412.09C424.376 411.036 423.522 410.236 422.468 409.691C421.413 409.146 420.196 408.873 418.814 408.873H390.244V423.159Z" fill="#0A1F1A"/>
<path d="M458.944 465.251L495.258 390.226H524.919L561.232 465.251H532.334L527.863 455.328H491.114L486.752 465.251H458.944ZM499.292 436.681H519.685L514.45 424.031C514.232 423.449 513.941 422.668 513.578 421.686C513.214 420.705 512.814 419.596 512.378 418.36C511.942 417.125 511.524 415.889 511.124 414.653C510.724 413.417 510.343 412.29 509.979 411.272H509.216C508.78 412.508 508.271 413.926 507.689 415.525C507.108 417.125 506.544 418.688 505.999 420.214C505.454 421.741 504.963 423.013 504.527 424.031L499.292 436.681Z" fill="#0A1F1A"/>
<path d="M570.175 465.251V390.226H612.486L621.755 417.706C622.337 419.233 622.918 420.996 623.5 422.995C624.081 424.994 624.645 426.993 625.19 428.993C625.735 430.992 626.19 432.719 626.553 434.173H627.316C627.68 432.791 628.134 431.156 628.68 429.265C629.225 427.375 629.806 425.394 630.424 423.322C631.042 421.25 631.642 419.378 632.224 417.706L641.493 390.226H682.495V465.251H655.56V432.537C655.56 430.719 655.578 428.72 655.615 426.539C655.651 424.358 655.705 422.214 655.778 420.105C655.851 417.997 655.887 416.179 655.887 414.653H655.015C654.506 416.325 653.906 418.27 653.216 420.487C652.525 422.704 651.834 424.885 651.144 427.03C650.453 429.174 649.817 431.01 649.235 432.537L637.458 465.251H613.576L601.799 432.537C600.999 430.21 600.218 427.902 599.454 425.612C598.691 423.322 598.019 421.214 597.437 419.287C596.855 417.361 596.383 415.816 596.019 414.653H595.147C595.22 415.816 595.274 417.361 595.311 419.287C595.347 421.214 595.383 423.322 595.42 425.612C595.456 427.902 595.474 430.21 595.474 432.537V465.251H570.175Z" fill="#0A1F1A"/>
<path d="M698.634 465.251V390.226H778.785V408.873H725.678V418.579H771.478V436.244H725.678V446.604H779.657V465.251H698.634Z" fill="#0A1F1A"/>
</g>
<defs>
<clipPath id="clip0_51_366">
<rect width="703.823" height="75.44" fill="white" transform="translate(75.9111 390.051)"/>
</clipPath>
</defs>
</svg>
