<svg xmlns="http://www.w3.org/2000/svg" viewBox="0 0 512 512" width="512" height="512"><style>.m{fill:#EC5011}@media(prefers-color-scheme:dark){.m{fill:#EC5011}}</style><g transform="translate(51.200,110.711) scale(0.17400)"><path class="m" d="M 33.3,2.6 c -8.8,1.9 -13.9,4.8 -20.5,11.5 c -6.8,6.9 -8.5,10 -10.9,19.4 c -1.8,6.7 -1.9,16.3 -1.9,194.8 c 0,160.1 0.2,188.2 1.4,190.5 c 0.8,1.5 8.3,9.4 16.8,17.6 c 8.4,8.1 23.7,23 33.9,33 c 10.2,9.9 26,25.3 35.1,34.1 c 9,8.8 28.8,27.9 43.9,42.5 c 15.1,14.6 40.7,39.4 56.9,54.9 c 16.2,15.6 36.9,35.6 46,44.5 c 36.1,35.1 52.6,51.1 77.5,75.1 c 73.2,70.6 82.6,79.9 82.3,82 c -0.3,2 -0.6,2 -180.8,2.5 l -180.5,0.5 l -5.8,2.3 c -6.7,2.7 -17.5,12.2 -21.2,18.6 c -5.8,10.1 -5.5,0 -5.5,221.3 c 0,191.2 0.1,202.9 1.8,205.4 c 0.9,1.4 8.9,9.5 17.7,17.9 c 8.8,8.4 21.4,20.6 28,27 c 6.6,6.4 26.9,26 45,43.5 c 44.3,42.8 55.9,54 76.5,74 c 9.6,9.3 21.6,20.8 26.5,25.5 c 9,8.6 40.8,39.6 53.4,52 c 3.6,3.6 15.1,14.6 25.5,24.5 c 10.5,9.9 24.4,23.4 31.1,30 c 26.9,26.6 68.6,66.4 75.8,72.4 c 18.2,14.9 45.7,30.4 65.7,36.9 c 17.9,5.9 37.3,10.1 51.8,11.2 c 19.2,1.4 950.2,1.4 959.2,-0.0999999999999 c 11.8,-1.9 21.6,-9.1 28.7,-21.1 l 4.8,-8.3 l 0.5,-191 c 0.3,-105.1 0.6,-191.1 0.8,-191.3 c 1.1,-1.2 5,1.9 18.8,15.1 c 24.6,23.4 129,124.2 136.9,132.2 c 3.9,3.9 16.2,15.8 27.5,26.5 c 11.3,10.7 23.4,22.4 27,26 c 8.2,8.2 31.2,30.4 58.9,57 c 11.8,11.3 26.6,25.6 33,31.8 c 70.9,69.1 75,72.7 99.7,90.8 c 11,8 46.6,22.8 66.4,27.6 c 22.6,5.4 12.9,5.1 188,5.5 c 165.6,0.4 172.2,0.3 179.3,-3.3 c 11.5,-5.8 21.4,-18 24.2,-29.6 c 1.3,-5.5 1.5,-31 1.5,-194.1 c 0,-134.4 -0.3,-188.5 -1.1,-190 c -0.6,-1.2 -5.7,-6.6 -11.2,-12 c -5.6,-5.4 -22.3,-21.6 -37.2,-36 c -14.8,-14.5 -41.6,-40.4 -59.5,-57.7 c -17.8,-17.3 -37,-36 -42.5,-41.5 c -5.6,-5.5 -19.3,-18.8 -30.6,-29.5 c -21.5,-20.6 -35.1,-33.7 -52.8,-51 c -6,-5.8 -19.8,-19 -30.7,-29.5 c -10.9,-10.4 -23.7,-22.8 -28.4,-27.5 c -4.7,-4.7 -13.4,-13.3 -19.5,-19.1 c -16,-15.2 -42.1,-40.5 -74,-71.5 c -15.4,-14.9 -34.5,-33.4 -42.5,-41 c -22.7,-21.7 -26.2,-25.3 -25.8,-27.2 c 0.3,-1.6 12.9,-1.7 211.3,-2.2 c 206.3,-0.5 211.1,-0.6 216.3,-2.5 c 7.3,-2.6 17.2,-11 21.5,-18.3 c 7.2,-11.6 6.7,1.3 6.7,-191 c 0,-146.7 -0.2,-173.7 -1.4,-176 c -0.8,-1.5 -9,-9.9 -18.2,-18.7 c -9.3,-8.8 -20.7,-19.8 -25.4,-24.5 c -4.7,-4.7 -16,-15.7 -25.1,-24.4 c -9,-8.8 -24.5,-23.9 -34.5,-33.5 c -16.9,-16.5 -48.1,-46.7 -87.9,-85.2 c -9.4,-9 -22.4,-21.6 -29,-27.9 c -6.6,-6.3 -14.7,-14.2 -18,-17.5 c -3.3,-3.3 -16.3,-15.9 -28.9,-28 c -12.6,-12.1 -28.9,-27.9 -36.1,-35 c -7.3,-7.2 -21.3,-20.7 -31.1,-30 c -9.8,-9.4 -21.9,-21.1 -26.9,-26 c -39.8,-39.5 -81.9,-59.5 -137.7,-65.5 c -6.4,-0.6 -91.8,-1 -252.6,-1 c -262.7,0 -247.8,-0.3 -258.5,5.1 c -6.8,3.5 -16.1,13.2 -19.9,20.7 l -3.3,6.7 l -0.5,190 c -0.5,175.7 -0.6,190 -2.1,190 c -1.4,0 -24.2,-21.4 -54.3,-51 c -3.3,-3.3 -10.8,-10.5 -16.6,-16 c -5.8,-5.5 -19.3,-18.6 -30,-29 c -34.4,-33.3 -44.4,-43.1 -103,-99.5 c -31.6,-30.5 -70.3,-67.8 -86,-82.9 c -15.6,-15.2 -35.4,-34.3 -44,-42.6 c -8.5,-8.2 -19.1,-18.5 -23.5,-22.9 c -11.1,-11.1 -27.9,-25.3 -37.8,-31.8 c -7.9,-5.4 -25,-14.4 -39,-20.7 c -14.2,-6.3 -34.4,-11.4 -58.2,-14.6 c -15.9,-2.1 -781.5,-2.1 -791.2,0.0999999999999 z m 1297,427.1 c 10.3,9.8 64.3,61.9 84.2,81.3 c 17.3,16.8 36.4,35.3 58,56.1 c 6.6,6.3 17.8,17.1 24.9,24 c 7.1,6.8 16.5,15.9 21,20.2 c 4.5,4.3 13.5,13.1 20.1,19.5 c 6.6,6.4 23.5,22.7 37.5,36.2 c 42.3,40.7 62.2,59.9 69.1,66.9 c 3.6,3.6 10.1,10 14.5,14.1 c 4.4,4.1 18.5,17.6 31.3,29.9 c 17.8,17.1 23.1,22.9 22.9,24.5 l -0.3,2.1 l -74,0.6 c -46.4,0.3 -75.5,0.9 -78,1.6 c -2.2,0.6 -6.2,1.6 -9,2.3 c -11.4,2.9 -26.5,12.1 -35.7,21.8 c -9.5,10 -16.2,20.8 -20.6,33.5 c -3.1,9 -3.6,11.6 -3.9,22.2 c -0.2,6.6 -0.5,90.2 -0.6,185.7 c -0.2,140.7 -0.4,173.9 -1.5,175 c -1.1,1.1 -2.5,0 -8,-5.7 c -3.7,-3.9 -13.9,-13.9 -22.7,-22.4 c -8.8,-8.5 -21.6,-20.9 -28.5,-27.6 c -11.2,-10.8 -55.6,-53.7 -129.5,-125 c -63,-60.7 -87.4,-84.4 -93,-90 c -3.3,-3.3 -11.6,-11.4 -18.5,-18 c -6.9,-6.6 -22.4,-21.5 -34.5,-33 c -12.1,-11.6 -25.8,-24.8 -30.5,-29.5 c -4.7,-4.7 -17.5,-17.1 -28.5,-27.5 c -10.9,-10.5 -23.3,-22.4 -27.5,-26.5 c -4.1,-4.1 -13,-12.9 -19.8,-19.4 c -9.1,-8.8 -12.2,-12.4 -12,-14 l 0.3,-2.1 l 104.5,-0.6 c 67.4,-0.3 105.9,-0.9 108.5,-1.6 c 11,-2.8 13.8,-3.9 23.9,-9 c 9.3,-4.8 11.9,-6.7 19.1,-14.2 c 4.6,-4.7 10,-11 12,-14 c 4.9,-7.1 11.2,-20.3 12.7,-26.6 c 0.9,-3.7 1.2,-44.7 1.5,-160 c 0.2,-85.3 0.5,-155.6 0.8,-156.3 c 0.8,-2.3 2.7,-1.2 9.8,5.5 z"/></g></svg>