<svg width="1010" height="242" viewBox="0 0 1010 242" fill="none" xmlns="http://www.w3.org/2000/svg">
<path d="M76.0127 166.708L120.297 75.2129H156.469L200.754 166.708H165.513L160.06 154.606H115.244L109.924 166.708H76.0127ZM125.218 131.865H150.086L143.703 116.439C143.437 115.729 143.082 114.776 142.639 113.579C142.196 112.383 141.708 111.031 141.176 109.523C140.644 108.016 140.134 106.509 139.647 105.002C139.159 103.495 138.694 102.12 138.25 100.879H137.319C136.787 102.386 136.167 104.115 135.458 106.066C134.748 108.016 134.061 109.922 133.396 111.784C132.731 113.646 132.133 115.197 131.601 116.439L125.218 131.865Z" fill="#F3F4F6"/>
<path d="M211.659 166.708V75.2129H304.218V97.9535H244.507V113.38H296.77V136.121H244.507V166.708H211.659Z" fill="#F3F4F6"/>
<path d="M318.979 166.708V75.2129H411.537V97.9535H351.826V113.38H404.09V136.121H351.826V166.708H318.979Z" fill="#F3F4F6"/>
<path d="M426.299 166.708V75.2129H505.559C512.385 75.2129 518.082 76.6314 522.647 79.4684C527.213 82.3055 530.649 86.0291 532.954 90.6393C535.259 95.2495 536.412 100.214 536.412 105.534C536.412 111.651 535.06 117.081 532.355 121.825C529.651 126.568 525.684 130.358 520.453 133.195L538.539 166.708H501.436L487.606 138.115H459.146V166.708H426.299ZM459.146 115.375H493.989C496.471 115.375 498.555 114.599 500.239 113.048C501.924 111.496 502.766 109.346 502.766 106.598C502.766 104.736 502.367 103.162 501.569 101.877C500.771 100.591 499.729 99.6159 498.444 98.9509C497.158 98.286 495.673 97.9535 493.989 97.9535H459.146V115.375Z" fill="#F3F4F6"/>
<path d="M542.928 166.708L587.212 75.2129H623.385L667.669 166.708H632.428L626.975 154.606H582.159L576.839 166.708H542.928ZM592.133 131.865H617.001L610.618 116.439C610.352 115.729 609.997 114.776 609.554 113.579C609.111 112.383 608.623 111.031 608.091 109.523C607.559 108.016 607.049 106.509 606.562 105.002C606.074 103.495 605.609 102.12 605.165 100.879H604.234C603.703 102.386 603.082 104.115 602.373 106.066C601.663 108.016 600.976 109.922 600.311 111.784C599.646 113.646 599.048 115.197 598.516 116.439L592.133 131.865Z" fill="#F3F4F6"/>
<path d="M678.574 166.708V75.2129H730.173L741.477 108.725C742.186 110.587 742.895 112.737 743.605 115.175C744.314 117.613 745.001 120.051 745.666 122.49C746.331 124.928 746.885 127.033 747.328 128.806H748.259C748.702 127.122 749.257 125.127 749.921 122.822C750.586 120.517 751.296 118.101 752.049 115.574C752.803 113.048 753.534 110.765 754.243 108.725L765.547 75.2129H815.55V166.708H782.703V126.812C782.703 124.595 782.725 122.157 782.769 119.497C782.813 116.838 782.88 114.222 782.969 111.651C783.057 109.08 783.102 106.864 783.102 105.002H782.038C781.417 107.041 780.686 109.413 779.843 112.117C779.001 114.821 778.159 117.48 777.317 120.096C776.474 122.711 775.699 124.95 774.989 126.812L760.627 166.708H731.503L717.14 126.812C716.165 123.975 715.212 121.16 714.281 118.367C713.35 115.574 712.53 113.003 711.821 110.654C711.112 108.304 710.535 106.42 710.092 105.002H709.028C709.117 106.42 709.183 108.304 709.228 110.654C709.272 113.003 709.316 115.574 709.361 118.367C709.405 121.16 709.427 123.975 709.427 126.812V166.708H678.574Z" fill="#F3F4F6"/>
<path d="M835.232 166.708V75.2129H932.977V97.9535H868.213V109.789H924.067V131.333H868.213V143.967H934.041V166.708H835.232Z" fill="#F3F4F6"/>
</svg>
