<svg width="218" height="178" viewBox="0 0 218 178" fill="none" xmlns="http://www.w3.org/2000/svg">
<path d="M39.622 38.5005C39.0881 38.6158 38.7787 38.7917 38.3783 39.1982C37.9657 39.6168 37.8626 39.8049 37.717 40.3752C37.6078 40.7816 37.6017 41.3641 37.6017 52.1933C37.6017 61.9062 37.6139 63.6109 37.6867 63.7505C37.7352 63.8415 38.1902 64.3208 38.7059 64.8182C39.2155 65.3096 40.1437 66.2136 40.7625 66.8203C41.3813 67.4209 42.3399 68.3552 42.892 68.889C43.438 69.4229 44.6392 70.5817 45.5553 71.4674C46.4714 72.3532 48.0245 73.8577 49.0073 74.7981C49.9901 75.7445 51.2459 76.9579 51.798 77.4978C53.9881 79.6273 54.9891 80.5979 56.4997 82.054C60.9406 86.3371 61.5109 86.9013 61.4927 87.0287C61.4745 87.1501 61.4563 87.1501 50.524 87.1804L39.5734 87.2107L39.2216 87.3503C38.8151 87.5141 38.1599 88.0904 37.9354 88.4787C37.5835 89.0914 37.6017 88.4787 37.6017 101.904C37.6017 113.504 37.6078 114.214 37.7109 114.366C37.7655 114.451 38.2509 114.942 38.7847 115.452C39.3186 115.961 40.083 116.701 40.4834 117.09C40.8839 117.478 42.1154 118.667 43.2135 119.729C45.9011 122.325 46.6048 123.005 47.8546 124.218C48.437 124.782 49.165 125.48 49.4623 125.765C50.0083 126.287 51.9375 128.168 52.7019 128.92C52.9203 129.138 53.618 129.806 54.249 130.406C54.886 131.007 55.7293 131.826 56.1357 132.226C57.7677 133.84 60.2976 136.255 60.7344 136.619C61.8385 137.523 63.5069 138.463 64.7202 138.857C65.8062 139.215 66.9831 139.47 67.8628 139.537C69.0277 139.622 125.509 139.622 126.055 139.531C126.771 139.415 127.366 138.979 127.797 138.251L128.088 137.747L128.118 126.159C128.136 119.783 128.155 114.566 128.167 114.554C128.233 114.481 128.47 114.669 129.307 115.47C130.8 116.889 137.133 123.005 137.613 123.49C137.849 123.727 138.595 124.449 139.281 125.098C139.967 125.747 140.701 126.457 140.919 126.675C141.417 127.173 142.812 128.519 144.492 130.133C145.208 130.819 146.106 131.686 146.494 132.062C150.796 136.255 151.044 136.473 152.543 137.571C153.21 138.056 155.37 138.954 156.571 139.246C157.942 139.573 157.354 139.555 167.977 139.579C178.023 139.603 178.424 139.597 178.855 139.379C179.552 139.027 180.153 138.287 180.323 137.583C180.402 137.25 180.414 135.703 180.414 125.808C180.414 117.654 180.396 114.372 180.347 114.281C180.311 114.208 180.001 113.88 179.668 113.553C179.328 113.225 178.315 112.242 177.411 111.369C176.513 110.489 174.887 108.918 173.801 107.868C172.721 106.819 171.556 105.684 171.223 105.35C170.883 105.017 170.052 104.21 169.366 103.561C168.062 102.311 167.237 101.516 166.163 100.467C165.799 100.115 164.962 99.314 164.3 98.6769C163.639 98.046 162.863 97.2937 162.577 97.0086C162.292 96.7234 161.764 96.2017 161.394 95.8498C160.424 94.9277 158.84 93.3928 156.905 91.5121C155.971 90.6081 154.812 89.4858 154.327 89.0247C152.949 87.7082 152.737 87.4898 152.761 87.3745C152.78 87.2775 153.544 87.2714 165.581 87.2411C178.096 87.2107 178.387 87.2047 178.703 87.0894C179.146 86.9317 179.746 86.422 180.007 85.9792C180.444 85.2754 180.414 86.058 180.414 74.3916C180.414 65.4916 180.402 63.8536 180.329 63.7141C180.28 63.6231 179.783 63.1135 179.225 62.5796C178.66 62.0457 177.969 61.3784 177.684 61.0932C177.399 60.8081 176.713 60.1407 176.161 59.6129C175.615 59.0791 174.675 58.163 174.068 57.5806C173.043 56.5795 171.15 54.7474 168.735 52.4117C168.165 51.8657 167.376 51.1012 166.976 50.719C166.575 50.3368 166.084 49.8575 165.884 49.6573C165.684 49.4571 164.895 48.6927 164.131 47.9586C163.366 47.2246 162.377 46.266 161.94 45.8353C161.498 45.3985 160.648 44.5794 160.054 44.0152C159.459 43.445 158.725 42.7351 158.422 42.4379C156.007 40.0415 153.453 38.8281 150.068 38.4641C149.679 38.4277 144.498 38.4035 134.743 38.4035C118.806 38.4035 119.71 38.3853 119.06 38.7129C118.648 38.9252 118.084 39.5137 117.853 39.9687L117.653 40.3752L117.623 51.9021C117.592 62.5614 117.586 63.4289 117.495 63.4289C117.41 63.4289 116.027 62.1306 114.201 60.3349C114.001 60.1347 113.546 59.6979 113.194 59.3642C112.842 59.0305 112.023 58.2358 111.374 57.6048C109.287 55.5846 108.68 54.99 105.125 51.5684C103.208 49.718 100.86 47.4551 99.9076 46.539C98.9612 45.6169 97.7599 44.4581 97.2382 43.9546C96.7225 43.4571 96.0794 42.8322 95.8125 42.5653C95.1391 41.8919 94.1199 41.0304 93.5193 40.636C93.04 40.3084 92.0026 39.7624 91.1532 39.3802C90.2917 38.998 89.0662 38.6886 87.6223 38.4945C86.6577 38.3671 40.2104 38.3671 39.622 38.5005ZM118.308 64.4118C118.933 65.0063 122.209 68.1671 123.416 69.3441C124.466 70.3633 125.625 71.4856 126.935 72.7475C127.336 73.1297 128.015 73.7849 128.446 74.2035C128.876 74.6161 129.447 75.1682 129.72 75.429C129.993 75.6899 130.539 76.2238 130.939 76.6121C131.34 77.0003 132.365 77.9892 133.214 78.8082C135.78 81.2774 136.988 82.4422 137.406 82.8669C137.625 83.0853 138.019 83.4736 138.286 83.7223C138.553 83.9711 139.408 84.7901 140.185 85.5363C141.265 86.5737 141.586 86.9256 141.574 87.0227L141.556 87.1501L137.067 87.1865C134.252 87.2047 132.486 87.2411 132.335 87.2835C132.201 87.3199 131.958 87.3806 131.789 87.4231C131.097 87.599 130.181 88.1571 129.623 88.7456C129.046 89.3523 128.64 90.0075 128.373 90.778C128.185 91.324 128.155 91.4817 128.136 92.1248C128.124 92.5252 128.106 97.5971 128.1 103.391C128.088 111.927 128.076 113.941 128.009 114.008C127.942 114.074 127.857 114.008 127.524 113.662C127.299 113.425 126.68 112.819 126.146 112.303C125.613 111.787 124.836 111.035 124.417 110.629C123.738 109.973 121.044 107.371 116.561 103.045C112.739 99.3625 111.259 97.9247 110.919 97.5849C110.719 97.3847 110.215 96.8933 109.796 96.4929C109.378 96.0925 108.437 95.1885 107.703 94.4909C106.969 93.7871 106.138 92.9863 105.853 92.7012C105.568 92.416 104.791 91.6637 104.124 91.0328C103.463 90.3958 102.71 89.6738 102.456 89.4251C102.207 89.1764 101.667 88.6425 101.254 88.2481C100.702 87.7143 100.514 87.4959 100.526 87.3988L100.545 87.2714L106.884 87.235C110.973 87.2168 113.309 87.1804 113.467 87.1379C114.134 86.9681 114.304 86.9013 114.917 86.5919C115.481 86.3007 115.639 86.1854 116.076 85.7304C116.355 85.4453 116.682 85.0631 116.804 84.8811C117.101 84.4503 117.483 83.6495 117.574 83.2673C117.629 83.0428 117.647 80.5555 117.665 73.5605C117.677 68.3855 117.695 64.1206 117.714 64.0781C117.762 63.9386 117.877 64.0053 118.308 64.4118Z" fill="#0A1F1A"/>
</svg>
